<svg width="28" height="12" viewBox="0 0 28 12" fill="none" xmlns="http://www.w3.org/2000/svg">
<path d="M5.91984 2.08171C6.23083 1.69273 6.44187 1.17044 6.38621 0.636719C5.93096 0.659356 5.37542 0.937062 5.05379 1.32635C4.765 1.65972 4.50939 2.20388 4.57603 2.71522C5.08707 2.75955 5.59763 2.45978 5.91984 2.08171Z" fill="#000008"/>
<path d="M6.38042 2.81507C5.63827 2.77086 5.00726 3.23628 4.65284 3.23628C4.29823 3.23628 3.75551 2.83734 3.1685 2.8481C2.40448 2.85932 1.69556 3.2913 1.30785 3.97836C0.510404 5.35281 1.09741 7.39161 1.87288 8.51102C2.24947 9.06483 2.70333 9.67462 3.30135 9.65271C3.86638 9.63054 4.08785 9.28685 4.77467 9.28685C5.46098 9.28685 5.66048 9.65271 6.2586 9.64163C6.87887 9.63054 7.26664 9.08754 7.64323 8.5332C8.07524 7.90188 8.2521 7.29229 8.26322 7.25883C8.2521 7.24775 7.06718 6.79318 7.05619 5.43015C7.045 4.28887 7.98648 3.74601 8.03079 3.71234C7.49913 2.92601 6.66842 2.83734 6.38042 2.81507Z" fill="#000008"/>
<path d="M12.8425 1.27052C14.4555 1.27052 15.5788 2.38242 15.5788 4.00125C15.5788 5.62587 14.4324 6.74354 12.802 6.74354H11.0161V9.58373H9.72572V1.27052L12.8425 1.27052ZM11.0161 5.66043H12.4967C13.6201 5.66043 14.2595 5.05559 14.2595 4.00703C14.2595 2.95859 13.6201 2.35941 12.5024 2.35941H11.0161V5.66043Z" fill="#000008"/>
<path d="M15.9159 7.8612C15.9159 6.80109 16.7282 6.15013 18.1686 6.06945L19.8276 5.97156V5.50495C19.8276 4.83088 19.3725 4.42762 18.6122 4.42762C17.8919 4.42762 17.4425 4.77321 17.3331 5.31482H16.1579C16.227 4.22015 17.1602 3.41362 18.6582 3.41362C20.1272 3.41362 21.0662 4.19137 21.0662 5.40694V9.58371H19.8736V8.58705H19.845C19.4936 9.26112 18.7273 9.68739 17.9323 9.68739C16.7455 9.68739 15.9159 8.94998 15.9159 7.8612ZM19.8276 7.31392V6.83576L18.3355 6.92788C17.5923 6.97977 17.1718 7.30814 17.1718 7.82664C17.1718 8.35658 17.6096 8.70228 18.2779 8.70228C19.1478 8.70228 19.8276 8.10311 19.8276 7.31392Z" fill="#000008"/>
<path d="M22.1921 11.8133V10.8051C22.2841 10.8281 22.4915 10.8281 22.5952 10.8281C23.1713 10.8281 23.4824 10.5861 23.6725 9.96397C23.6725 9.95242 23.782 9.59527 23.782 9.58949L21.5929 3.52307H22.9408L24.4734 8.45459H24.4963L26.0289 3.52307H27.3424L25.0724 9.90052C24.5541 11.3697 23.9549 11.8421 22.699 11.8421C22.5952 11.8421 22.2841 11.8305 22.1921 11.8133Z" fill="#000008"/>
</svg>
