<svg width="65" height="64" viewBox="0 0 65 64" fill="none" xmlns="http://www.w3.org/2000/svg">
<path d="M59.1673 32H43.1673L37.834 40H27.1673L21.834 32H5.83398" stroke="#5C5F6A" stroke-width="2" stroke-linecap="round" stroke-linejoin="round"/>
<path d="M15.034 13.6267L5.83398 32.0001V48.0001C5.83398 49.4146 6.39589 50.7711 7.39608 51.7713C8.39628 52.7715 9.75283 53.3334 11.1673 53.3334H53.834C55.2485 53.3334 56.605 52.7715 57.6052 51.7713C58.6054 50.7711 59.1673 49.4146 59.1673 48.0001V32.0001L49.9673 13.6267C49.5258 12.7382 48.8451 11.9904 48.0019 11.4675C47.1586 10.9446 46.1862 10.6673 45.194 10.6667H19.8073C18.8151 10.6673 17.8427 10.9446 16.9994 11.4675C16.1562 11.9904 15.4755 12.7382 15.034 13.6267Z" stroke="#5C5F6A" stroke-width="2" stroke-linecap="round" stroke-linejoin="round"/>
</svg>
