<svg width="56" height="58" viewBox="0 0 56 58" fill="none" xmlns="http://www.w3.org/2000/svg">
<path d="M43.75 11.6099H22.4766C22.112 10.1151 21.3099 8.86637 20.0703 7.86377C18.8307 6.86116 17.3906 6.35986 15.75 6.35986C14.1094 6.35986 12.6693 6.86116 11.4297 7.86377C10.1901 8.86637 9.38802 10.1151 9.02344 11.6099H1.75C1.27604 11.6099 0.865885 11.783 0.519531 12.1294C0.173177 12.4757 0 12.8859 0 13.3599C0 13.8338 0.173177 14.244 0.519531 14.5903C0.865885 14.9367 1.27604 15.1099 1.75 15.1099H9.02344C9.38802 16.6047 10.1901 17.8534 11.4297 18.856C12.6693 19.8586 14.1094 20.3599 15.75 20.3599C17.3906 20.3599 18.8307 19.8586 20.0703 18.856C21.3099 17.8534 22.112 16.6047 22.4766 15.1099H43.75C44.224 15.1099 44.6341 14.9367 44.9805 14.5903C45.3268 14.244 45.5 13.8338 45.5 13.3599C45.5 12.8859 45.3268 12.4757 44.9805 12.1294C44.6341 11.783 44.224 11.6099 43.75 11.6099ZM15.75 16.8599C14.8021 16.8599 13.9818 16.5135 13.2891 15.8208C12.5964 15.1281 12.25 14.3078 12.25 13.3599C12.25 12.4119 12.5964 11.5916 13.2891 10.8989C13.9818 10.2062 14.8021 9.85986 15.75 9.85986C16.6979 9.85986 17.5182 10.2062 18.2109 10.8989C18.9036 11.5916 19.25 12.4119 19.25 13.3599C19.25 14.3078 18.9036 15.1281 18.2109 15.8208C17.5182 16.5135 16.6979 16.8599 15.75 16.8599ZM43.75 27.3599H36.4766C36.112 25.8651 35.3099 24.6164 34.0703 23.6138C32.8307 22.6112 31.3906 22.1099 29.75 22.1099C28.1094 22.1099 26.6693 22.6112 25.4297 23.6138C24.1901 24.6164 23.388 25.8651 23.0234 27.3599H1.75C1.27604 27.3599 0.865885 27.533 0.519531 27.8794C0.173177 28.2257 0 28.6359 0 29.1099C0 29.5838 0.173177 29.994 0.519531 30.3403C0.865885 30.6867 1.27604 30.8599 1.75 30.8599H23.0234C23.388 32.3547 24.1901 33.6034 25.4297 34.606C26.6693 35.6086 28.1094 36.1099 29.75 36.1099C31.3906 36.1099 32.8307 35.6086 34.0703 34.606C35.3099 33.6034 36.112 32.3547 36.4766 30.8599H43.75C44.224 30.8599 44.6341 30.6867 44.9805 30.3403C45.3268 29.994 45.5 29.5838 45.5 29.1099C45.5 28.6359 45.3268 28.2257 44.9805 27.8794C44.6341 27.533 44.224 27.3599 43.75 27.3599ZM29.75 32.6099C28.8021 32.6099 27.9818 32.2635 27.2891 31.5708C26.5964 30.8781 26.25 30.0578 26.25 29.1099C26.25 28.1619 26.5964 27.3416 27.2891 26.6489C27.9818 25.9562 28.8021 25.6099 29.75 25.6099C30.6979 25.6099 31.5182 25.9562 32.2109 26.6489C32.9036 27.3416 33.25 28.1619 33.25 29.1099C33.25 30.0578 32.9036 30.8781 32.2109 31.5708C31.5182 32.2635 30.6979 32.6099 29.75 32.6099ZM43.75 43.1099H22.4766C22.112 41.6151 21.3099 40.3664 20.0703 39.3638C18.8307 38.3612 17.3906 37.8599 15.75 37.8599C14.1094 37.8599 12.6693 38.3612 11.4297 39.3638C10.1901 40.3664 9.38802 41.6151 9.02344 43.1099H1.75C1.27604 43.1099 0.865885 43.283 0.519531 43.6294C0.173177 43.9757 0 44.3859 0 44.8599C0 45.3338 0.173177 45.744 0.519531 46.0903C0.865885 46.4367 1.27604 46.6099 1.75 46.6099H9.02344C9.38802 48.1047 10.1901 49.3534 11.4297 50.356C12.6693 51.3586 14.1094 51.8599 15.75 51.8599C17.3906 51.8599 18.8307 51.3586 20.0703 50.356C21.3099 49.3534 22.112 48.1047 22.4766 46.6099H43.75C44.224 46.6099 44.6341 46.4367 44.9805 46.0903C45.3268 45.744 45.5 45.3338 45.5 44.8599C45.5 44.3859 45.3268 43.9757 44.9805 43.6294C44.6341 43.283 44.224 43.1099 43.75 43.1099ZM15.75 48.3599C14.8021 48.3599 13.9818 48.0135 13.2891 47.3208C12.5964 46.6281 12.25 45.8078 12.25 44.8599C12.25 43.9119 12.5964 43.0916 13.2891 42.3989C13.9818 41.7062 14.8021 41.3599 15.75 41.3599C16.6979 41.3599 17.5182 41.7062 18.2109 42.3989C18.9036 43.0916 19.25 43.9119 19.25 44.8599C19.25 45.8078 18.9036 46.6281 18.2109 47.3208C17.5182 48.0135 16.6979 48.3599 15.75 48.3599ZM43.75 11.6099H22.4766C22.112 10.1151 21.3099 8.86637 20.0703 7.86377C18.8307 6.86116 17.3906 6.35986 15.75 6.35986C14.1094 6.35986 12.6693 6.86116 11.4297 7.86377C10.1901 8.86637 9.38802 10.1151 9.02344 11.6099H1.75C1.27604 11.6099 0.865885 11.783 0.519531 12.1294C0.173177 12.4757 0 12.8859 0 13.3599C0 13.8338 0.173177 14.244 0.519531 14.5903C0.865885 14.9367 1.27604 15.1099 1.75 15.1099H9.02344C9.38802 16.6047 10.1901 17.8534 11.4297 18.856C12.6693 19.8586 14.1094 20.3599 15.75 20.3599C17.3906 20.3599 18.8307 19.8586 20.0703 18.856C21.3099 17.8534 22.112 16.6047 22.4766 15.1099H43.75C44.224 15.1099 44.6341 14.9367 44.9805 14.5903C45.3268 14.244 45.5 13.8338 45.5 13.3599C45.5 12.8859 45.3268 12.4757 44.9805 12.1294C44.6341 11.783 44.224 11.6099 43.75 11.6099ZM15.75 16.8599C14.8021 16.8599 13.9818 16.5135 13.2891 15.8208C12.5964 15.1281 12.25 14.3078 12.25 13.3599C12.25 12.4119 12.5964 11.5916 13.2891 10.8989C13.9818 10.2062 14.8021 9.85986 15.75 9.85986C16.6979 9.85986 17.5182 10.2062 18.2109 10.8989C18.9036 11.5916 19.25 12.4119 19.25 13.3599C19.25 14.3078 18.9036 15.1281 18.2109 15.8208C17.5182 16.5135 16.6979 16.8599 15.75 16.8599ZM43.75 27.3599H36.4766C36.112 25.8651 35.3099 24.6164 34.0703 23.6138C32.8307 22.6112 31.3906 22.1099 29.75 22.1099C28.1094 22.1099 26.6693 22.6112 25.4297 23.6138C24.1901 24.6164 23.388 25.8651 23.0234 27.3599H1.75C1.27604 27.3599 0.865885 27.533 0.519531 27.8794C0.173177 28.2257 0 28.6359 0 29.1099C0 29.5838 0.173177 29.994 0.519531 30.3403C0.865885 30.6867 1.27604 30.8599 1.75 30.8599H23.0234C23.388 32.3547 24.1901 33.6034 25.4297 34.606C26.6693 35.6086 28.1094 36.1099 29.75 36.1099C31.3906 36.1099 32.8307 35.6086 34.0703 34.606C35.3099 33.6034 36.112 32.3547 36.4766 30.8599H43.75C44.224 30.8599 44.6341 30.6867 44.9805 30.3403C45.3268 29.994 45.5 29.5838 45.5 29.1099C45.5 28.6359 45.3268 28.2257 44.9805 27.8794C44.6341 27.533 44.224 27.3599 43.75 27.3599ZM29.75 32.6099C28.8021 32.6099 27.9818 32.2635 27.2891 31.5708C26.5964 30.8781 26.25 30.0578 26.25 29.1099C26.25 28.1619 26.5964 27.3416 27.2891 26.6489C27.9818 25.9562 28.8021 25.6099 29.75 25.6099C30.6979 25.6099 31.5182 25.9562 32.2109 26.6489C32.9036 27.3416 33.25 28.1619 33.25 29.1099C33.25 30.0578 32.9036 30.8781 32.2109 31.5708C31.5182 32.2635 30.6979 32.6099 29.75 32.6099ZM43.75 43.1099H22.4766C22.112 41.6151 21.3099 40.3664 20.0703 39.3638C18.8307 38.3612 17.3906 37.8599 15.75 37.8599C14.1094 37.8599 12.6693 38.3612 11.4297 39.3638C10.1901 40.3664 9.38802 41.6151 9.02344 43.1099H1.75C1.27604 43.1099 0.865885 43.283 0.519531 43.6294C0.173177 43.9757 0 44.3859 0 44.8599C0 45.3338 0.173177 45.744 0.519531 46.0903C0.865885 46.4367 1.27604 46.6099 1.75 46.6099H9.02344C9.38802 48.1047 10.1901 49.3534 11.4297 50.356C12.6693 51.3586 14.1094 51.8599 15.75 51.8599C17.3906 51.8599 18.8307 51.3586 20.0703 50.356C21.3099 49.3534 22.112 48.1047 22.4766 46.6099H43.75C44.224 46.6099 44.6341 46.4367 44.9805 46.0903C45.3268 45.744 45.5 45.3338 45.5 44.8599C45.5 44.3859 45.3268 43.9757 44.9805 43.6294C44.6341 43.283 44.224 43.1099 43.75 43.1099ZM15.75 48.3599C14.8021 48.3599 13.9818 48.0135 13.2891 47.3208C12.5964 46.6281 12.25 45.8078 12.25 44.8599C12.25 43.9119 12.5964 43.0916 13.2891 42.3989C13.9818 41.7062 14.8021 41.3599 15.75 41.3599C16.6979 41.3599 17.5182 41.7062 18.2109 42.3989C18.9036 43.0916 19.25 43.9119 19.25 44.8599C19.25 45.8078 18.9036 46.6281 18.2109 47.3208C17.5182 48.0135 16.6979 48.3599 15.75 48.3599Z" fill="black"/>
</svg>
