<svg width="56" height="58" viewBox="0 0 56 58" fill="none" xmlns="http://www.w3.org/2000/svg">
<path d="M54.9609 10.0239L42.7109 4.77393C42.4922 4.66455 42.2552 4.60986 42 4.60986C41.7448 4.60986 41.5078 4.66455 41.2891 4.77393L29.0391 10.0239C28.7474 10.1333 28.5013 10.3338 28.3008 10.6255C28.1003 10.9172 28 11.2453 28 11.6099V18.6099C28 21.0161 28.237 23.1854 28.7109 25.1177C29.1849 27.0864 29.9414 28.8911 30.9805 30.5317C32.0195 32.1724 33.3776 33.7218 35.0547 35.1802C36.6953 36.6021 38.7188 38.0057 41.125 39.3911C41.2708 39.464 41.4167 39.5187 41.5625 39.5552C41.7083 39.5916 41.8542 39.6099 42 39.6099C42.1458 39.6099 42.2917 39.5916 42.4375 39.5552C42.5833 39.5187 42.7292 39.464 42.875 39.3911C45.2812 38.0057 47.3047 36.6021 48.9453 35.1802C50.6224 33.7583 51.9805 32.2179 53.0195 30.5591C54.0586 28.9002 54.8151 27.1047 55.2891 25.1724C55.763 23.2036 56 21.0161 56 18.6099V11.6099C56 11.2453 55.8997 10.9172 55.6992 10.6255C55.4987 10.3338 55.2526 10.1333 54.9609 10.0239ZM52.5 18.6099C52.5 20.6151 52.3177 22.4198 51.9531 24.0239C51.5885 25.6646 50.9961 27.1593 50.1758 28.5083C49.3555 29.8573 48.2708 31.1151 46.9219 32.2817C45.6094 33.4849 43.9688 34.6698 42 35.8364C40.0312 34.6698 38.3906 33.4849 37.0781 32.2817C35.7292 31.1151 34.6445 29.8481 33.8242 28.481C33.0039 27.1138 32.4115 25.6281 32.0469 24.0239C31.6823 22.4198 31.5 20.6151 31.5 18.6099V12.7583L42 8.27393L52.5 12.7583V18.6099ZM52.5 37.8599V50.1099H3.5V29.1099H22.75C23.224 29.1099 23.6341 28.9367 23.9805 28.5903C24.3268 28.244 24.5 27.8338 24.5 27.3599C24.5 26.8859 24.3268 26.4757 23.9805 26.1294C23.6341 25.783 23.224 25.6099 22.75 25.6099H3.5V18.6099H22.75C23.224 18.6099 23.6341 18.4367 23.9805 18.0903C24.3268 17.744 24.5 17.3338 24.5 16.8599C24.5 16.3859 24.3268 15.9757 23.9805 15.6294C23.6341 15.283 23.224 15.1099 22.75 15.1099H3.5C2.55208 15.1099 1.73177 15.4471 1.03906 16.1216C0.346354 16.7961 0 17.6255 0 18.6099V50.1099C0 51.0578 0.346354 51.8781 1.03906 52.5708C1.73177 53.2635 2.55208 53.6099 3.5 53.6099H52.5C53.4479 53.6099 54.2682 53.2635 54.9609 52.5708C55.6536 51.8781 56 51.0578 56 50.1099V37.8599C56 37.3859 55.8268 36.9757 55.4805 36.6294C55.1341 36.283 54.724 36.1099 54.25 36.1099C53.776 36.1099 53.3659 36.283 53.0195 36.6294C52.6732 36.9757 52.5 37.3859 52.5 37.8599ZM8.75 36.1099C8.27604 36.1099 7.86589 36.283 7.51953 36.6294C7.17318 36.9757 7 37.3859 7 37.8599C7 38.3338 7.17318 38.744 7.51953 39.0903C7.86589 39.4367 8.27604 39.6099 8.75 39.6099H15.75C16.224 39.6099 16.6341 39.4367 16.9805 39.0903C17.3268 38.744 17.5 38.3338 17.5 37.8599C17.5 37.3859 17.3268 36.9757 16.9805 36.6294C16.6341 36.283 16.224 36.1099 15.75 36.1099H8.75ZM45.8828 15.7661L40.3594 22.6567L38.2266 19.3755C37.9349 18.9744 37.5521 18.7284 37.0781 18.6372C36.6042 18.5461 36.1667 18.6281 35.7656 18.8833C35.3646 19.175 35.1185 19.5578 35.0273 20.0317C34.9362 20.5057 35.0182 20.9432 35.2734 21.3442L38.7734 26.5942C38.9557 26.813 39.1654 26.9953 39.4023 27.1411C39.6393 27.2869 39.9036 27.3599 40.1953 27.3599H40.25C40.5052 27.3599 40.7513 27.3052 40.9883 27.1958C41.2253 27.0864 41.4349 26.9224 41.6172 26.7036L48.6172 17.9536C48.9089 17.589 49.0273 17.1606 48.9727 16.6685C48.918 16.1763 48.7083 15.7843 48.3438 15.4927C47.9792 15.201 47.5508 15.0825 47.0586 15.1372C46.5664 15.1919 46.1745 15.4015 45.8828 15.7661ZM54.9609 10.0239L42.7109 4.77393C42.4922 4.66455 42.2552 4.60986 42 4.60986C41.7448 4.60986 41.5078 4.66455 41.2891 4.77393L29.0391 10.0239C28.7474 10.1333 28.5013 10.3338 28.3008 10.6255C28.1003 10.9172 28 11.2453 28 11.6099V18.6099C28 21.0161 28.237 23.1854 28.7109 25.1177C29.1849 27.0864 29.9414 28.8911 30.9805 30.5317C32.0195 32.1724 33.3776 33.7218 35.0547 35.1802C36.6953 36.6021 38.7188 38.0057 41.125 39.3911C41.2708 39.464 41.4167 39.5187 41.5625 39.5552C41.7083 39.5916 41.8542 39.6099 42 39.6099C42.1458 39.6099 42.2917 39.5916 42.4375 39.5552C42.5833 39.5187 42.7292 39.464 42.875 39.3911C45.2812 38.0057 47.3047 36.6021 48.9453 35.1802C50.6224 33.7583 51.9805 32.2179 53.0195 30.5591C54.0586 28.9002 54.8151 27.1047 55.2891 25.1724C55.763 23.2036 56 21.0161 56 18.6099V11.6099C56 11.2453 55.8997 10.9172 55.6992 10.6255C55.4987 10.3338 55.2526 10.1333 54.9609 10.0239ZM52.5 18.6099C52.5 20.6151 52.3177 22.4198 51.9531 24.0239C51.5885 25.6646 50.9961 27.1593 50.1758 28.5083C49.3555 29.8573 48.2708 31.1151 46.9219 32.2817C45.6094 33.4849 43.9688 34.6698 42 35.8364C40.0312 34.6698 38.3906 33.4849 37.0781 32.2817C35.7292 31.1151 34.6445 29.8481 33.8242 28.481C33.0039 27.1138 32.4115 25.6281 32.0469 24.0239C31.6823 22.4198 31.5 20.6151 31.5 18.6099V12.7583L42 8.27393L52.5 12.7583V18.6099ZM52.5 37.8599V50.1099H3.5V29.1099H22.75C23.224 29.1099 23.6341 28.9367 23.9805 28.5903C24.3268 28.244 24.5 27.8338 24.5 27.3599C24.5 26.8859 24.3268 26.4757 23.9805 26.1294C23.6341 25.783 23.224 25.6099 22.75 25.6099H3.5V18.6099H22.75C23.224 18.6099 23.6341 18.4367 23.9805 18.0903C24.3268 17.744 24.5 17.3338 24.5 16.8599C24.5 16.3859 24.3268 15.9757 23.9805 15.6294C23.6341 15.283 23.224 15.1099 22.75 15.1099H3.5C2.55208 15.1099 1.73177 15.4471 1.03906 16.1216C0.346354 16.7961 0 17.6255 0 18.6099V50.1099C0 51.0578 0.346354 51.8781 1.03906 52.5708C1.73177 53.2635 2.55208 53.6099 3.5 53.6099H52.5C53.4479 53.6099 54.2682 53.2635 54.9609 52.5708C55.6536 51.8781 56 51.0578 56 50.1099V37.8599C56 37.3859 55.8268 36.9757 55.4805 36.6294C55.1341 36.283 54.724 36.1099 54.25 36.1099C53.776 36.1099 53.3659 36.283 53.0195 36.6294C52.6732 36.9757 52.5 37.3859 52.5 37.8599ZM8.75 36.1099C8.27604 36.1099 7.86589 36.283 7.51953 36.6294C7.17318 36.9757 7 37.3859 7 37.8599C7 38.3338 7.17318 38.744 7.51953 39.0903C7.86589 39.4367 8.27604 39.6099 8.75 39.6099H15.75C16.224 39.6099 16.6341 39.4367 16.9805 39.0903C17.3268 38.744 17.5 38.3338 17.5 37.8599C17.5 37.3859 17.3268 36.9757 16.9805 36.6294C16.6341 36.283 16.224 36.1099 15.75 36.1099H8.75ZM45.8828 15.7661L40.3594 22.6567L38.2266 19.3755C37.9349 18.9744 37.5521 18.7284 37.0781 18.6372C36.6042 18.5461 36.1667 18.6281 35.7656 18.8833C35.3646 19.175 35.1185 19.5578 35.0273 20.0317C34.9362 20.5057 35.0182 20.9432 35.2734 21.3442L38.7734 26.5942C38.9557 26.813 39.1654 26.9953 39.4023 27.1411C39.6393 27.2869 39.9036 27.3599 40.1953 27.3599H40.25C40.5052 27.3599 40.7513 27.3052 40.9883 27.1958C41.2253 27.0864 41.4349 26.9224 41.6172 26.7036L48.6172 17.9536C48.9089 17.589 49.0273 17.1606 48.9727 16.6685C48.918 16.1763 48.7083 15.7843 48.3438 15.4927C47.9792 15.201 47.5508 15.0825 47.0586 15.1372C46.5664 15.1919 46.1745 15.4015 45.8828 15.7661Z" fill="black"/>
</svg>
