<svg width="56" height="58" viewBox="0 0 56 58" fill="none" xmlns="http://www.w3.org/2000/svg">
<g clip-path="url(#clip0_26_13884)">
<path d="M52.7188 15.8755V21.0708C53.6667 21.3989 54.4505 21.9914 55.0703 22.8481C55.6901 23.7049 56 24.6619 56 25.7192V45.6255C56 46.9744 55.5169 48.132 54.5508 49.0981C53.5846 50.0643 52.4271 50.5474 51.0781 50.5474H46.1562V55.4692C46.1562 55.9067 45.9922 56.2896 45.6641 56.6177C45.3359 56.9458 44.9531 57.1099 44.5156 57.1099H11.4844C11.0469 57.1099 10.6641 56.9458 10.3359 56.6177C10.0078 56.2896 9.84375 55.9067 9.84375 55.4692V50.5474H4.92188C3.57292 50.5474 2.41536 50.0643 1.44922 49.0981C0.483073 48.132 0 46.9744 0 45.6255V25.7192C0 24.6619 0.309896 23.7049 0.929688 22.8481C1.54948 21.9914 2.33333 21.3989 3.28125 21.0708V15.8755C3.28125 14.5265 3.76432 13.369 4.73047 12.4028C5.69661 11.4367 6.85417 10.9536 8.20312 10.9536H9.84375V2.75049C9.84375 2.31299 10.0078 1.93018 10.3359 1.60205C10.6641 1.27393 11.0469 1.10986 11.4844 1.10986H34.6719C34.8906 1.10986 35.1003 1.15544 35.3008 1.24658C35.5013 1.33773 35.6745 1.45622 35.8203 1.60205L45.1719 10.9536H47.7969C49.1458 10.9536 50.3034 11.4367 51.2695 12.4028C52.2357 13.369 52.7188 14.5265 52.7188 15.8755ZM47.7969 14.2349H46.1562V20.7974H49.4375V15.8755C49.4375 15.438 49.2734 15.0552 48.9453 14.7271C48.6172 14.3989 48.2344 14.2349 47.7969 14.2349ZM40.5781 10.9536L36.3125 6.68799V10.9536H40.5781ZM33.0312 4.39111H13.125V20.7974H42.875V14.2349H34.6719C34.2344 14.2349 33.8516 14.0708 33.5234 13.7427C33.1953 13.4146 33.0312 13.0317 33.0312 12.5942V4.39111ZM8.20312 14.2349C7.76562 14.2349 7.38281 14.3989 7.05469 14.7271C6.72656 15.0552 6.5625 15.438 6.5625 15.8755V20.7974H9.84375V14.2349H8.20312ZM13.125 53.8286H42.875V37.4224H13.125V53.8286ZM51.0781 47.2661C51.5156 47.2661 51.8984 47.1021 52.2266 46.7739C52.5547 46.4458 52.7188 46.063 52.7188 45.6255V25.7192C52.7188 25.2817 52.5547 24.8989 52.2266 24.5708C51.8984 24.2427 51.5156 24.0786 51.0781 24.0786H4.92188C4.48438 24.0786 4.10156 24.2427 3.77344 24.5708C3.44531 24.8989 3.28125 25.2817 3.28125 25.7192V45.6255C3.28125 46.063 3.44531 46.4458 3.77344 46.7739C4.10156 47.1021 4.48438 47.2661 4.92188 47.2661H9.84375V37.4224H8.20312C7.76562 37.4224 7.38281 37.2583 7.05469 36.9302C6.72656 36.6021 6.5625 36.2192 6.5625 35.7817C6.5625 35.3442 6.72656 34.9614 7.05469 34.6333C7.38281 34.3052 7.76562 34.1411 8.20312 34.1411H47.7969C48.2344 34.1411 48.6172 34.3052 48.9453 34.6333C49.2734 34.9614 49.4375 35.3442 49.4375 35.7817C49.4375 36.2192 49.2734 36.6021 48.9453 36.9302C48.6172 37.2583 48.2344 37.4224 47.7969 37.4224H46.1562V47.2661H51.0781ZM18.0469 40.7036C17.6094 40.7036 17.2266 40.8677 16.8984 41.1958C16.5703 41.5239 16.4062 41.9067 16.4062 42.3442C16.4062 42.7817 16.5703 43.1646 16.8984 43.4927C17.2266 43.8208 17.6094 43.9849 18.0469 43.9849H37.9531C38.3906 43.9849 38.7734 43.8208 39.1016 43.4927C39.4297 43.1646 39.5938 42.7817 39.5938 42.3442C39.5938 41.9067 39.4297 41.5239 39.1016 41.1958C38.7734 40.8677 38.3906 40.7036 37.9531 40.7036H18.0469ZM37.9531 47.2661C38.3906 47.2661 38.7734 47.4302 39.1016 47.7583C39.4297 48.0864 39.5938 48.4692 39.5938 48.9067C39.5938 49.3442 39.4297 49.7271 39.1016 50.0552C38.7734 50.3833 38.3906 50.5474 37.9531 50.5474H18.0469C17.6094 50.5474 17.2266 50.3833 16.8984 50.0552C16.5703 49.7271 16.4062 49.3442 16.4062 48.9067C16.4062 48.4692 16.5703 48.0864 16.8984 47.7583C17.2266 47.4302 17.6094 47.2661 18.0469 47.2661H37.9531ZM6.5625 29.0005C6.5625 29.438 6.72656 29.8208 7.05469 30.1489C7.38281 30.4771 7.76562 30.6411 8.20312 30.6411H11.4844C11.9219 30.6411 12.3047 30.4771 12.6328 30.1489C12.9609 29.8208 13.125 29.438 13.125 29.0005C13.125 28.563 12.9609 28.1802 12.6328 27.8521C12.3047 27.5239 11.9219 27.3599 11.4844 27.3599H8.20312C7.76562 27.3599 7.38281 27.5239 7.05469 27.8521C6.72656 28.1802 6.5625 28.563 6.5625 29.0005ZM52.7188 15.8755V21.0708C53.6667 21.3989 54.4505 21.9914 55.0703 22.8481C55.6901 23.7049 56 24.6619 56 25.7192V45.6255C56 46.9744 55.5169 48.132 54.5508 49.0981C53.5846 50.0643 52.4271 50.5474 51.0781 50.5474H46.1562V55.4692C46.1562 55.9067 45.9922 56.2896 45.6641 56.6177C45.3359 56.9458 44.9531 57.1099 44.5156 57.1099H11.4844C11.0469 57.1099 10.6641 56.9458 10.3359 56.6177C10.0078 56.2896 9.84375 55.9067 9.84375 55.4692V50.5474H4.92188C3.57292 50.5474 2.41536 50.0643 1.44922 49.0981C0.483073 48.132 0 46.9744 0 45.6255V25.7192C0 24.6619 0.309896 23.7049 0.929688 22.8481C1.54948 21.9914 2.33333 21.3989 3.28125 21.0708V15.8755C3.28125 14.5265 3.76432 13.369 4.73047 12.4028C5.69661 11.4367 6.85417 10.9536 8.20312 10.9536H9.84375V2.75049C9.84375 2.31299 10.0078 1.93018 10.3359 1.60205C10.6641 1.27393 11.0469 1.10986 11.4844 1.10986H34.6719C34.8906 1.10986 35.1003 1.15544 35.3008 1.24658C35.5013 1.33773 35.6745 1.45622 35.8203 1.60205L45.1719 10.9536H47.7969C49.1458 10.9536 50.3034 11.4367 51.2695 12.4028C52.2357 13.369 52.7188 14.5265 52.7188 15.8755ZM47.7969 14.2349H46.1562V20.7974H49.4375V15.8755C49.4375 15.438 49.2734 15.0552 48.9453 14.7271C48.6172 14.3989 48.2344 14.2349 47.7969 14.2349ZM40.5781 10.9536L36.3125 6.68799V10.9536H40.5781ZM33.0312 4.39111H13.125V20.7974H42.875V14.2349H34.6719C34.2344 14.2349 33.8516 14.0708 33.5234 13.7427C33.1953 13.4146 33.0312 13.0317 33.0312 12.5942V4.39111ZM8.20312 14.2349C7.76562 14.2349 7.38281 14.3989 7.05469 14.7271C6.72656 15.0552 6.5625 15.438 6.5625 15.8755V20.7974H9.84375V14.2349H8.20312ZM13.125 53.8286H42.875V37.4224H13.125V53.8286ZM51.0781 47.2661C51.5156 47.2661 51.8984 47.1021 52.2266 46.7739C52.5547 46.4458 52.7188 46.063 52.7188 45.6255V25.7192C52.7188 25.2817 52.5547 24.8989 52.2266 24.5708C51.8984 24.2427 51.5156 24.0786 51.0781 24.0786H4.92188C4.48438 24.0786 4.10156 24.2427 3.77344 24.5708C3.44531 24.8989 3.28125 25.2817 3.28125 25.7192V45.6255C3.28125 46.063 3.44531 46.4458 3.77344 46.7739C4.10156 47.1021 4.48438 47.2661 4.92188 47.2661H9.84375V37.4224H8.20312C7.76562 37.4224 7.38281 37.2583 7.05469 36.9302C6.72656 36.6021 6.5625 36.2192 6.5625 35.7817C6.5625 35.3442 6.72656 34.9614 7.05469 34.6333C7.38281 34.3052 7.76562 34.1411 8.20312 34.1411H47.7969C48.2344 34.1411 48.6172 34.3052 48.9453 34.6333C49.2734 34.9614 49.4375 35.3442 49.4375 35.7817C49.4375 36.2192 49.2734 36.6021 48.9453 36.9302C48.6172 37.2583 48.2344 37.4224 47.7969 37.4224H46.1562V47.2661H51.0781ZM18.0469 40.7036C17.6094 40.7036 17.2266 40.8677 16.8984 41.1958C16.5703 41.5239 16.4062 41.9067 16.4062 42.3442C16.4062 42.7817 16.5703 43.1646 16.8984 43.4927C17.2266 43.8208 17.6094 43.9849 18.0469 43.9849H37.9531C38.3906 43.9849 38.7734 43.8208 39.1016 43.4927C39.4297 43.1646 39.5938 42.7817 39.5938 42.3442C39.5938 41.9067 39.4297 41.5239 39.1016 41.1958C38.7734 40.8677 38.3906 40.7036 37.9531 40.7036H18.0469ZM37.9531 47.2661C38.3906 47.2661 38.7734 47.4302 39.1016 47.7583C39.4297 48.0864 39.5938 48.4692 39.5938 48.9067C39.5938 49.3442 39.4297 49.7271 39.1016 50.0552C38.7734 50.3833 38.3906 50.5474 37.9531 50.5474H18.0469C17.6094 50.5474 17.2266 50.3833 16.8984 50.0552C16.5703 49.7271 16.4062 49.3442 16.4062 48.9067C16.4062 48.4692 16.5703 48.0864 16.8984 47.7583C17.2266 47.4302 17.6094 47.2661 18.0469 47.2661H37.9531ZM6.5625 29.0005C6.5625 29.438 6.72656 29.8208 7.05469 30.1489C7.38281 30.4771 7.76562 30.6411 8.20312 30.6411H11.4844C11.9219 30.6411 12.3047 30.4771 12.6328 30.1489C12.9609 29.8208 13.125 29.438 13.125 29.0005C13.125 28.563 12.9609 28.1802 12.6328 27.8521C12.3047 27.5239 11.9219 27.3599 11.4844 27.3599H8.20312C7.76562 27.3599 7.38281 27.5239 7.05469 27.8521C6.72656 28.1802 6.5625 28.563 6.5625 29.0005Z" fill="black"/>
</g>
<defs>
<clipPath id="clip0_26_13884">
<rect width="56" height="57" fill="white" transform="matrix(1 0 0 -1 0 57.6099)"/>
</clipPath>
</defs>
</svg>
