<svg width="56" height="40" viewBox="0 0 56 40" fill="none" xmlns="http://www.w3.org/2000/svg">
<path d="M55.6172 19.9458L52.3359 15.7349L47.0312 5.18018C46.8854 4.88851 46.6758 4.66064 46.4023 4.49658C46.1289 4.33252 45.8099 4.25049 45.4453 4.25049H37.9531V2.4458C37.9531 1.97184 37.7799 1.56169 37.4336 1.21533C37.0872 0.868978 36.6771 0.695801 36.2031 0.695801H6.78125C6.27083 0.695801 5.84245 0.868978 5.49609 1.21533C5.14974 1.56169 4.97656 1.97184 4.97656 2.4458C4.97656 2.95622 5.14974 3.3846 5.49609 3.73096C5.84245 4.07731 6.27083 4.25049 6.78125 4.25049H34.3984V16.5552C34.3984 17.0656 34.5716 17.494 34.918 17.8403C35.2643 18.1867 35.6927 18.3599 36.2031 18.3599H49.875L52.4453 21.6411V30.7739H49.1641C48.763 29.2427 47.9336 27.9666 46.6758 26.9458C45.418 25.925 43.9505 25.4146 42.2734 25.4146C40.6328 25.4146 39.1836 25.925 37.9258 26.9458C36.668 27.9666 35.8385 29.2427 35.4375 30.7739H25.0469C24.6458 29.2427 23.8164 27.9666 22.5586 26.9458C21.3008 25.925 19.8333 25.4146 18.1562 25.4146C16.5156 25.4146 15.0664 25.925 13.8086 26.9458C12.5508 27.9666 11.7214 29.2427 11.3203 30.7739H6.78125C6.27083 30.7739 5.84245 30.9471 5.49609 31.2935C5.14974 31.6398 4.97656 32.05 4.97656 32.5239C4.97656 32.9979 5.14974 33.408 5.49609 33.7544C5.84245 34.1007 6.27083 34.2739 6.78125 34.2739H11.375C11.776 35.8052 12.6055 37.063 13.8633 38.0474C15.1211 39.0317 16.5521 39.5239 18.1562 39.5239C19.7969 39.5239 21.2461 39.0317 22.5039 38.0474C23.7617 37.063 24.5911 35.8052 24.9922 34.2739H35.4922C35.8932 35.8052 36.7227 37.063 37.9805 38.0474C39.2383 39.0317 40.6693 39.5239 42.2734 39.5239C43.9141 39.5239 45.3633 39.0317 46.6211 38.0474C47.8789 37.063 48.7083 35.8052 49.1094 34.2739H54.25C54.724 34.2739 55.1341 34.1007 55.4805 33.7544C55.8268 33.408 56 32.9979 56 32.5239V21.0396C56 20.8573 55.9727 20.675 55.918 20.4927C55.8633 20.3104 55.763 20.1281 55.6172 19.9458ZM44.4062 7.75049L47.9062 14.8052H37.9531V7.75049H44.4062ZM18.1562 35.9692C17.2083 35.9692 16.388 35.632 15.6953 34.9575C15.0026 34.283 14.6562 33.4536 14.6562 32.4692C14.6562 31.4849 15.0026 30.6463 15.6953 29.9536C16.388 29.2609 17.2083 28.9146 18.1562 28.9146C19.1406 28.9146 19.9792 29.2609 20.6719 29.9536C21.3646 30.6463 21.7109 31.4849 21.7109 32.4692C21.7109 33.4536 21.3646 34.283 20.6719 34.9575C19.9792 35.632 19.1406 35.9692 18.1562 35.9692ZM42.2734 35.9692C41.3255 35.9692 40.5052 35.632 39.8125 34.9575C39.1198 34.283 38.7734 33.4536 38.7734 32.4692C38.7734 31.4849 39.1198 30.6463 39.8125 29.9536C40.5052 29.2609 41.3255 28.9146 42.2734 28.9146C43.2578 28.9146 44.0964 29.2609 44.7891 29.9536C45.4818 30.6463 45.8281 31.4849 45.8281 32.4692C45.8281 33.4536 45.4818 34.283 44.7891 34.9575C44.0964 35.632 43.2578 35.9692 42.2734 35.9692ZM4.64844 21.8052C4.17448 21.8052 3.76432 21.9784 3.41797 22.3247C3.07161 22.6711 2.89844 23.0812 2.89844 23.5552C2.89844 24.0656 3.07161 24.494 3.41797 24.8403C3.76432 25.1867 4.17448 25.3599 4.64844 25.3599H12.7422C13.2526 25.3599 13.681 25.1867 14.0273 24.8403C14.3737 24.494 14.5469 24.0656 14.5469 23.5552C14.5469 23.0812 14.3737 22.6711 14.0273 22.3247C13.681 21.9784 13.2526 21.8052 12.7422 21.8052H4.64844ZM16.8438 14.8599C17.3177 14.8599 17.7279 15.033 18.0742 15.3794C18.4206 15.7257 18.5938 16.1541 18.5938 16.6646C18.5938 17.1385 18.4206 17.5487 18.0742 17.895C17.7279 18.2414 17.3177 18.4146 16.8438 18.4146H1.75C1.27604 18.4146 0.865885 18.2414 0.519531 17.895C0.173177 17.5487 0 17.1385 0 16.6646C0 16.1541 0.173177 15.7257 0.519531 15.3794C0.865885 15.033 1.27604 14.8599 1.75 14.8599H16.8438ZM4.64844 7.91455C4.17448 7.91455 3.76432 8.08773 3.41797 8.43408C3.07161 8.78044 2.89844 9.20882 2.89844 9.71924C2.89844 10.1932 3.07161 10.6034 3.41797 10.9497C3.76432 11.2961 4.17448 11.4692 4.64844 11.4692H19.6875C20.1979 11.4692 20.6263 11.2961 20.9727 10.9497C21.319 10.6034 21.4922 10.1932 21.4922 9.71924C21.4922 9.20882 21.319 8.78044 20.9727 8.43408C20.6263 8.08773 20.1979 7.91455 19.6875 7.91455H4.64844ZM55.6172 19.9458L52.3359 15.7349L47.0312 5.18018C46.8854 4.88851 46.6758 4.66064 46.4023 4.49658C46.1289 4.33252 45.8099 4.25049 45.4453 4.25049H37.9531V2.4458C37.9531 1.97184 37.7799 1.56169 37.4336 1.21533C37.0872 0.868978 36.6771 0.695801 36.2031 0.695801H6.78125C6.27083 0.695801 5.84245 0.868978 5.49609 1.21533C5.14974 1.56169 4.97656 1.97184 4.97656 2.4458C4.97656 2.95622 5.14974 3.3846 5.49609 3.73096C5.84245 4.07731 6.27083 4.25049 6.78125 4.25049H34.3984V16.5552C34.3984 17.0656 34.5716 17.494 34.918 17.8403C35.2643 18.1867 35.6927 18.3599 36.2031 18.3599H49.875L52.4453 21.6411V30.7739H49.1641C48.763 29.2427 47.9336 27.9666 46.6758 26.9458C45.418 25.925 43.9505 25.4146 42.2734 25.4146C40.6328 25.4146 39.1836 25.925 37.9258 26.9458C36.668 27.9666 35.8385 29.2427 35.4375 30.7739H25.0469C24.6458 29.2427 23.8164 27.9666 22.5586 26.9458C21.3008 25.925 19.8333 25.4146 18.1562 25.4146C16.5156 25.4146 15.0664 25.925 13.8086 26.9458C12.5508 27.9666 11.7214 29.2427 11.3203 30.7739H6.78125C6.27083 30.7739 5.84245 30.9471 5.49609 31.2935C5.14974 31.6398 4.97656 32.05 4.97656 32.5239C4.97656 32.9979 5.14974 33.408 5.49609 33.7544C5.84245 34.1007 6.27083 34.2739 6.78125 34.2739H11.375C11.776 35.8052 12.6055 37.063 13.8633 38.0474C15.1211 39.0317 16.5521 39.5239 18.1562 39.5239C19.7969 39.5239 21.2461 39.0317 22.5039 38.0474C23.7617 37.063 24.5911 35.8052 24.9922 34.2739H35.4922C35.8932 35.8052 36.7227 37.063 37.9805 38.0474C39.2383 39.0317 40.6693 39.5239 42.2734 39.5239C43.9141 39.5239 45.3633 39.0317 46.6211 38.0474C47.8789 37.063 48.7083 35.8052 49.1094 34.2739H54.25C54.724 34.2739 55.1341 34.1007 55.4805 33.7544C55.8268 33.408 56 32.9979 56 32.5239V21.0396C56 20.8573 55.9727 20.675 55.918 20.4927C55.8633 20.3104 55.763 20.1281 55.6172 19.9458ZM44.4062 7.75049L47.9062 14.8052H37.9531V7.75049H44.4062ZM18.1562 35.9692C17.2083 35.9692 16.388 35.632 15.6953 34.9575C15.0026 34.283 14.6562 33.4536 14.6562 32.4692C14.6562 31.4849 15.0026 30.6463 15.6953 29.9536C16.388 29.2609 17.2083 28.9146 18.1562 28.9146C19.1406 28.9146 19.9792 29.2609 20.6719 29.9536C21.3646 30.6463 21.7109 31.4849 21.7109 32.4692C21.7109 33.4536 21.3646 34.283 20.6719 34.9575C19.9792 35.632 19.1406 35.9692 18.1562 35.9692ZM42.2734 35.9692C41.3255 35.9692 40.5052 35.632 39.8125 34.9575C39.1198 34.283 38.7734 33.4536 38.7734 32.4692C38.7734 31.4849 39.1198 30.6463 39.8125 29.9536C40.5052 29.2609 41.3255 28.9146 42.2734 28.9146C43.2578 28.9146 44.0964 29.2609 44.7891 29.9536C45.4818 30.6463 45.8281 31.4849 45.8281 32.4692C45.8281 33.4536 45.4818 34.283 44.7891 34.9575C44.0964 35.632 43.2578 35.9692 42.2734 35.9692ZM4.64844 21.8052C4.17448 21.8052 3.76432 21.9784 3.41797 22.3247C3.07161 22.6711 2.89844 23.0812 2.89844 23.5552C2.89844 24.0656 3.07161 24.494 3.41797 24.8403C3.76432 25.1867 4.17448 25.3599 4.64844 25.3599H12.7422C13.2526 25.3599 13.681 25.1867 14.0273 24.8403C14.3737 24.494 14.5469 24.0656 14.5469 23.5552C14.5469 23.0812 14.3737 22.6711 14.0273 22.3247C13.681 21.9784 13.2526 21.8052 12.7422 21.8052H4.64844ZM16.8438 14.8599C17.3177 14.8599 17.7279 15.033 18.0742 15.3794C18.4206 15.7257 18.5938 16.1541 18.5938 16.6646C18.5938 17.1385 18.4206 17.5487 18.0742 17.895C17.7279 18.2414 17.3177 18.4146 16.8438 18.4146H1.75C1.27604 18.4146 0.865885 18.2414 0.519531 17.895C0.173177 17.5487 0 17.1385 0 16.6646C0 16.1541 0.173177 15.7257 0.519531 15.3794C0.865885 15.033 1.27604 14.8599 1.75 14.8599H16.8438ZM4.64844 7.91455C4.17448 7.91455 3.76432 8.08773 3.41797 8.43408C3.07161 8.78044 2.89844 9.20882 2.89844 9.71924C2.89844 10.1932 3.07161 10.6034 3.41797 10.9497C3.76432 11.2961 4.17448 11.4692 4.64844 11.4692H19.6875C20.1979 11.4692 20.6263 11.2961 20.9727 10.9497C21.319 10.6034 21.4922 10.1932 21.4922 9.71924C21.4922 9.20882 21.319 8.78044 20.9727 8.43408C20.6263 8.08773 20.1979 7.91455 19.6875 7.91455H4.64844Z" fill="black"/>
</svg>
