<svg width="54" height="55" viewBox="0 0 54 55" fill="none" xmlns="http://www.w3.org/2000/svg">
<path d="M50.4219 29.4067V18.688C50.4219 18.5422 50.4036 18.3963 50.3672 18.2505C50.3307 18.1047 50.276 17.9771 50.2031 17.8677L41.0703 2.66455C40.6328 1.93538 40.0221 1.34294 39.2383 0.887207C38.4544 0.431477 37.625 0.203613 36.75 0.203613H13.6719C12.7969 0.203613 11.9766 0.431477 11.2109 0.887207C10.4453 1.34294 9.82552 1.93538 9.35156 2.66455L0.273438 17.8677C0.200521 17.9771 0.136719 18.1047 0.0820312 18.2505C0.0273438 18.3963 0 18.5422 0 18.688V45.5942C0 46.9797 0.501302 48.1646 1.50391 49.1489C2.50651 50.1333 3.70052 50.6255 5.08594 50.6255H29.2031C30.4792 51.6828 31.9284 52.5122 33.5508 53.1138C35.1732 53.7153 36.8776 54.0161 38.6641 54.0161C40.7422 54.0161 42.7109 53.6151 44.5703 52.813C46.3932 52.0109 47.9883 50.9263 49.3555 49.5591C50.7227 48.1919 51.8073 46.5968 52.6094 44.7739C53.4115 42.9146 53.8125 40.9458 53.8125 38.8677C53.8125 37.0812 53.5117 35.3768 52.9102 33.7544C52.3086 32.132 51.4792 30.6828 50.4219 29.4067ZM26.9062 3.59424H36.75C37.0417 3.59424 37.3151 3.66716 37.5703 3.81299C37.8255 3.95882 38.0443 4.15934 38.2266 4.41455L45.7734 17.0474H26.9062V3.59424ZM12.25 4.41455C12.3958 4.15934 12.5964 3.95882 12.8516 3.81299C13.1068 3.66716 13.3802 3.59424 13.6719 3.59424H23.5703V17.0474H4.64844L12.25 4.41455ZM3.39062 45.5942V20.3833H47.0859V26.2896C45.8828 25.4875 44.5703 24.8677 43.1484 24.4302C41.7266 23.9927 40.2318 23.7739 38.6641 23.7739C36.5859 23.7739 34.6354 24.1567 32.8125 24.9224C30.9531 25.7244 29.3398 26.8091 27.9727 28.1763C26.6055 29.5435 25.5208 31.1567 24.7188 33.0161C23.9531 34.839 23.5703 36.7896 23.5703 38.8677C23.5703 40.4354 23.7891 41.9302 24.2266 43.3521C24.6641 44.7739 25.2839 46.0864 26.0859 47.2896H5.08594C4.61198 47.2896 4.21094 47.1255 3.88281 46.7974C3.55469 46.4692 3.39062 46.0682 3.39062 45.5942ZM38.6641 50.6255C37.0599 50.6255 35.5286 50.3156 34.0703 49.6958C32.6484 49.076 31.4089 48.2375 30.3516 47.1802C29.2943 46.1229 28.4557 44.8833 27.8359 43.4614C27.2161 42.0031 26.9062 40.4718 26.9062 38.8677C26.9062 37.2635 27.2161 35.7323 27.8359 34.2739C28.4557 32.8521 29.2943 31.6125 30.3516 30.5552C31.4089 29.4979 32.6484 28.6593 34.0703 28.0396C35.5286 27.4198 37.0599 27.1099 38.6641 27.1099C40.2682 27.1099 41.7995 27.4198 43.2578 28.0396C44.6797 28.6593 45.9193 29.4979 46.9766 30.5552C48.0339 31.6125 48.8724 32.8521 49.4922 34.2739C50.112 35.7323 50.4219 37.2635 50.4219 38.8677C50.4219 40.4718 50.112 42.0031 49.4922 43.4614C48.8724 44.8833 48.0339 46.1229 46.9766 47.1802C45.9193 48.2375 44.6797 49.076 43.2578 49.6958C41.7995 50.3156 40.2682 50.6255 38.6641 50.6255ZM36.9688 45.5942C36.75 45.5942 36.5404 45.5487 36.3398 45.4575C36.1393 45.3664 35.9661 45.2479 35.8203 45.1021L30.7344 40.0708C30.4062 39.7427 30.2422 39.3416 30.2422 38.8677C30.2422 38.3937 30.4062 37.9927 30.7344 37.6646C31.0625 37.3364 31.4635 37.1724 31.9375 37.1724C32.4115 37.1724 32.8125 37.3364 33.1406 37.6646L36.9688 41.5474L44.1875 34.3286C44.5156 34.0005 44.9167 33.8364 45.3906 33.8364C45.8646 33.8364 46.2656 34.0005 46.5938 34.3286C46.9219 34.6567 47.0859 35.0487 47.0859 35.5044C47.0859 35.9601 46.9219 36.3521 46.5938 36.6802L38.1719 45.1021C38.026 45.2479 37.8438 45.3664 37.625 45.4575C37.4062 45.5487 37.1875 45.5942 36.9688 45.5942ZM16.8438 28.8052H10.1172C9.64323 28.8052 9.24219 28.6411 8.91406 28.313C8.58594 27.9849 8.42188 27.5838 8.42188 27.1099C8.42188 26.6359 8.58594 26.2349 8.91406 25.9067C9.24219 25.5786 9.64323 25.4146 10.1172 25.4146H16.8438C17.2812 25.4146 17.6641 25.5786 17.9922 25.9067C18.3203 26.2349 18.4844 26.6359 18.4844 27.1099C18.4844 27.5838 18.3203 27.9849 17.9922 28.313C17.6641 28.6411 17.2812 28.8052 16.8438 28.8052ZM50.4219 29.4067V18.688C50.4219 18.5422 50.4036 18.3963 50.3672 18.2505C50.3307 18.1047 50.276 17.9771 50.2031 17.8677L41.0703 2.66455C40.6328 1.93538 40.0221 1.34294 39.2383 0.887207C38.4544 0.431477 37.625 0.203613 36.75 0.203613H13.6719C12.7969 0.203613 11.9766 0.431477 11.2109 0.887207C10.4453 1.34294 9.82552 1.93538 9.35156 2.66455L0.273438 17.8677C0.200521 17.9771 0.136719 18.1047 0.0820312 18.2505C0.0273438 18.3963 0 18.5422 0 18.688V45.5942C0 46.9797 0.501302 48.1646 1.50391 49.1489C2.50651 50.1333 3.70052 50.6255 5.08594 50.6255H29.2031C30.4792 51.6828 31.9284 52.5122 33.5508 53.1138C35.1732 53.7153 36.8776 54.0161 38.6641 54.0161C40.7422 54.0161 42.7109 53.6151 44.5703 52.813C46.3932 52.0109 47.9883 50.9263 49.3555 49.5591C50.7227 48.1919 51.8073 46.5968 52.6094 44.7739C53.4115 42.9146 53.8125 40.9458 53.8125 38.8677C53.8125 37.0812 53.5117 35.3768 52.9102 33.7544C52.3086 32.132 51.4792 30.6828 50.4219 29.4067ZM26.9062 3.59424H36.75C37.0417 3.59424 37.3151 3.66716 37.5703 3.81299C37.8255 3.95882 38.0443 4.15934 38.2266 4.41455L45.7734 17.0474H26.9062V3.59424ZM12.25 4.41455C12.3958 4.15934 12.5964 3.95882 12.8516 3.81299C13.1068 3.66716 13.3802 3.59424 13.6719 3.59424H23.5703V17.0474H4.64844L12.25 4.41455ZM3.39062 45.5942V20.3833H47.0859V26.2896C45.8828 25.4875 44.5703 24.8677 43.1484 24.4302C41.7266 23.9927 40.2318 23.7739 38.6641 23.7739C36.5859 23.7739 34.6354 24.1567 32.8125 24.9224C30.9531 25.7244 29.3398 26.8091 27.9727 28.1763C26.6055 29.5435 25.5208 31.1567 24.7188 33.0161C23.9531 34.839 23.5703 36.7896 23.5703 38.8677C23.5703 40.4354 23.7891 41.9302 24.2266 43.3521C24.6641 44.7739 25.2839 46.0864 26.0859 47.2896H5.08594C4.61198 47.2896 4.21094 47.1255 3.88281 46.7974C3.55469 46.4692 3.39062 46.0682 3.39062 45.5942ZM38.6641 50.6255C37.0599 50.6255 35.5286 50.3156 34.0703 49.6958C32.6484 49.076 31.4089 48.2375 30.3516 47.1802C29.2943 46.1229 28.4557 44.8833 27.8359 43.4614C27.2161 42.0031 26.9062 40.4718 26.9062 38.8677C26.9062 37.2635 27.2161 35.7323 27.8359 34.2739C28.4557 32.8521 29.2943 31.6125 30.3516 30.5552C31.4089 29.4979 32.6484 28.6593 34.0703 28.0396C35.5286 27.4198 37.0599 27.1099 38.6641 27.1099C40.2682 27.1099 41.7995 27.4198 43.2578 28.0396C44.6797 28.6593 45.9193 29.4979 46.9766 30.5552C48.0339 31.6125 48.8724 32.8521 49.4922 34.2739C50.112 35.7323 50.4219 37.2635 50.4219 38.8677C50.4219 40.4718 50.112 42.0031 49.4922 43.4614C48.8724 44.8833 48.0339 46.1229 46.9766 47.1802C45.9193 48.2375 44.6797 49.076 43.2578 49.6958C41.7995 50.3156 40.2682 50.6255 38.6641 50.6255ZM36.9688 45.5942C36.75 45.5942 36.5404 45.5487 36.3398 45.4575C36.1393 45.3664 35.9661 45.2479 35.8203 45.1021L30.7344 40.0708C30.4062 39.7427 30.2422 39.3416 30.2422 38.8677C30.2422 38.3937 30.4062 37.9927 30.7344 37.6646C31.0625 37.3364 31.4635 37.1724 31.9375 37.1724C32.4115 37.1724 32.8125 37.3364 33.1406 37.6646L36.9688 41.5474L44.1875 34.3286C44.5156 34.0005 44.9167 33.8364 45.3906 33.8364C45.8646 33.8364 46.2656 34.0005 46.5938 34.3286C46.9219 34.6567 47.0859 35.0487 47.0859 35.5044C47.0859 35.9601 46.9219 36.3521 46.5938 36.6802L38.1719 45.1021C38.026 45.2479 37.8438 45.3664 37.625 45.4575C37.4062 45.5487 37.1875 45.5942 36.9688 45.5942ZM16.8438 28.8052H10.1172C9.64323 28.8052 9.24219 28.6411 8.91406 28.313C8.58594 27.9849 8.42188 27.5838 8.42188 27.1099C8.42188 26.6359 8.58594 26.2349 8.91406 25.9067C9.24219 25.5786 9.64323 25.4146 10.1172 25.4146H16.8438C17.2812 25.4146 17.6641 25.5786 17.9922 25.9067C18.3203 26.2349 18.4844 26.6359 18.4844 27.1099C18.4844 27.5838 18.3203 27.9849 17.9922 28.313C17.6641 28.6411 17.2812 28.8052 16.8438 28.8052ZM49.4375 29.7349V18.688C49.4375 18.6515 49.4284 18.5968 49.4102 18.5239C49.3919 18.451 49.3646 18.3963 49.3281 18.3599L40.25 3.21143C39.8854 2.59163 39.3932 2.10856 38.7734 1.76221C38.1536 1.41585 37.4792 1.24268 36.75 1.24268H13.6719C12.9792 1.24268 12.3229 1.41585 11.7031 1.76221C11.0833 2.10856 10.5911 2.59163 10.2266 3.21143L1.14844 18.3599C1.11198 18.3963 1.08464 18.451 1.06641 18.5239C1.04818 18.5968 1.03906 18.6515 1.03906 18.688V45.5942C1.03906 46.688 1.43099 47.6359 2.21484 48.438C2.9987 49.2401 3.95573 49.6411 5.08594 49.6411H29.5312L29.8047 49.8599C31.0078 50.8442 32.3659 51.6099 33.8789 52.1567C35.3919 52.7036 36.987 52.9771 38.6641 52.9771C40.5964 52.9771 42.4193 52.6125 44.1328 51.8833C45.8464 51.1541 47.3503 50.1424 48.6445 48.8481C49.9388 47.5539 50.9505 46.05 51.6797 44.3364C52.4089 42.6229 52.7734 40.8 52.7734 38.8677C52.7734 37.1906 52.5 35.5955 51.9531 34.0825C51.4062 32.5695 50.6406 31.2114 49.6562 30.0083L49.4375 29.7349ZM41.0703 2.66455L50.2031 17.8677C50.276 17.9771 50.3307 18.1047 50.3672 18.2505C50.4036 18.3963 50.4219 18.5422 50.4219 18.688V29.4067C51.4792 30.6828 52.3086 32.132 52.9102 33.7544C53.5117 35.3768 53.8125 37.0812 53.8125 38.8677C53.8125 40.9458 53.4115 42.9146 52.6094 44.7739C51.8073 46.5968 50.7227 48.1919 49.3555 49.5591C47.9883 50.9263 46.3932 52.0109 44.5703 52.813C42.7109 53.6151 40.7422 54.0161 38.6641 54.0161C36.8776 54.0161 35.1732 53.7153 33.5508 53.1138C31.9284 52.5122 30.4792 51.6828 29.2031 50.6255H5.08594C3.70052 50.6255 2.50651 50.1333 1.50391 49.1489C0.501302 48.1646 0 46.9797 0 45.5942V18.688C0 18.5422 0.0273438 18.3963 0.0820312 18.2505C0.136719 18.1047 0.200521 17.9771 0.273438 17.8677L9.35156 2.66455C9.82552 1.93538 10.4453 1.34294 11.2109 0.887207C11.9766 0.431477 12.7969 0.203613 13.6719 0.203613H36.75C37.625 0.203613 38.4544 0.431477 39.2383 0.887207C40.0221 1.34294 40.6328 1.93538 41.0703 2.66455ZM25.9219 2.60986V18.0317H47.5234L39.0469 3.86768C38.8281 3.46663 38.5091 3.15674 38.0898 2.93799C37.6706 2.71924 37.224 2.60986 36.75 2.60986H25.9219ZM12.25 4.41455C12.3958 4.15934 12.5964 3.95882 12.8516 3.81299C13.1068 3.66716 13.3802 3.59424 13.6719 3.59424H23.5703V17.0474H4.64844L12.25 4.41455ZM11.375 3.86768L2.89844 18.0317H24.5547V2.60986H13.6719C13.1979 2.60986 12.7604 2.71924 12.3594 2.93799C11.9583 3.15674 11.6302 3.46663 11.375 3.86768ZM2.40625 19.3989V45.5942C2.40625 46.3234 2.66146 46.9523 3.17188 47.481C3.68229 48.0096 4.32031 48.2739 5.08594 48.2739H28L26.9062 46.688C26.1771 45.5942 25.6029 44.382 25.1836 43.0513C24.7643 41.7205 24.5547 40.326 24.5547 38.8677C24.5547 36.9354 24.9193 35.1125 25.6484 33.3989C26.3776 31.6854 27.3893 30.1815 28.6836 28.8872C29.9779 27.5929 31.4818 26.5812 33.1953 25.8521C34.9089 25.1229 36.7318 24.7583 38.6641 24.7583C40.1224 24.7583 41.5169 24.9679 42.8477 25.3872C44.1784 25.8065 45.3906 26.3807 46.4844 27.1099L48.0703 28.2036V19.3989H2.40625ZM36.9688 42.9692L32.4297 38.3755C32.2839 38.2661 32.1198 38.2114 31.9375 38.2114C31.7552 38.2114 31.5911 38.2661 31.4453 38.3755C31.3359 38.5213 31.2812 38.6854 31.2812 38.8677C31.2812 39.05 31.3359 39.214 31.4453 39.3599L36.5312 44.3911C36.5677 44.464 36.6315 44.5187 36.7227 44.5552C36.8138 44.5916 36.8958 44.6099 36.9688 44.6099C37.0781 44.6099 37.1693 44.5916 37.2422 44.5552C37.3151 44.5187 37.388 44.464 37.4609 44.3911L45.8828 35.9692C45.9922 35.8599 46.0469 35.7049 46.0469 35.5044C46.0469 35.3039 45.9922 35.1489 45.8828 35.0396C45.737 34.8937 45.5729 34.8208 45.3906 34.8208C45.2083 34.8208 45.0443 34.8937 44.8984 35.0396L36.9688 42.9692ZM26.9062 17.0474V3.59424H36.75C37.0417 3.59424 37.3151 3.66716 37.5703 3.81299C37.8255 3.95882 38.0443 4.15934 38.2266 4.41455L45.7734 17.0474H26.9062ZM46.0469 25.688C44.9531 25.0682 43.7865 24.5942 42.5469 24.2661C41.3073 23.938 40.013 23.7739 38.6641 23.7739C36.5859 23.7739 34.6354 24.1567 32.8125 24.9224C30.9531 25.7244 29.3398 26.8091 27.9727 28.1763C26.6055 29.5435 25.5208 31.1567 24.7188 33.0161C23.9531 34.839 23.5703 36.7896 23.5703 38.8677C23.5703 40.2166 23.7344 41.5109 24.0625 42.7505C24.3906 43.9901 24.8646 45.1567 25.4844 46.2505C25.5938 46.4328 25.694 46.606 25.7852 46.77C25.8763 46.9341 25.9766 47.1073 26.0859 47.2896H5.08594C4.61198 47.2896 4.21094 47.1255 3.88281 46.7974C3.55469 46.4692 3.39062 46.0682 3.39062 45.5942V20.3833H47.0859V26.2896C46.9036 26.1802 46.7305 26.0799 46.5664 25.9888C46.4023 25.8976 46.2292 25.7974 46.0469 25.688ZM38.6641 51.6099C36.9141 51.6099 35.2552 51.2817 33.6875 50.6255C32.1562 49.9692 30.8073 49.0578 29.6406 47.8911C28.474 46.7244 27.5625 45.3755 26.9062 43.8442C26.25 42.2765 25.9219 40.6177 25.9219 38.8677C25.9219 37.1177 26.25 35.4588 26.9062 33.8911C27.5625 32.3599 28.474 31.0109 29.6406 29.8442C30.8073 28.6776 32.1562 27.7661 33.6875 27.1099C35.2552 26.4536 36.9141 26.1255 38.6641 26.1255C40.4141 26.1255 42.0729 26.4536 43.6406 27.1099C45.1719 27.7661 46.5208 28.6776 47.6875 29.8442C48.8542 31.0109 49.7656 32.3599 50.4219 33.8911C51.0781 35.4588 51.4062 37.1177 51.4062 38.8677C51.4062 40.6177 51.0781 42.2765 50.4219 43.8442C49.7656 45.3755 48.8542 46.7244 47.6875 47.8911C46.5208 49.0578 45.1719 49.9692 43.6406 50.6255C42.0729 51.2817 40.4141 51.6099 38.6641 51.6099ZM36.9688 41.5474L44.1875 34.3286C44.5156 34.0005 44.9167 33.8364 45.3906 33.8364C45.8646 33.8364 46.2656 34.0005 46.5938 34.3286C46.9219 34.6567 47.0859 35.0487 47.0859 35.5044C47.0859 35.9601 46.9219 36.3521 46.5938 36.6802L38.1719 45.1021C38.026 45.2479 37.8438 45.3664 37.625 45.4575C37.4062 45.5487 37.1875 45.5942 36.9688 45.5942C36.75 45.5942 36.5404 45.5487 36.3398 45.4575C36.1393 45.3664 35.9661 45.2479 35.8203 45.1021L30.7344 40.0708C30.4062 39.7427 30.2422 39.3416 30.2422 38.8677C30.2422 38.3937 30.4062 37.9927 30.7344 37.6646C31.0625 37.3364 31.4635 37.1724 31.9375 37.1724C32.4115 37.1724 32.8125 37.3364 33.1406 37.6646L36.9688 41.5474ZM10.1172 27.7661C9.9349 27.7661 9.77083 27.7023 9.625 27.5747C9.47917 27.4471 9.40625 27.2922 9.40625 27.1099C9.40625 26.9276 9.47917 26.7726 9.625 26.645C9.77083 26.5174 9.9349 26.4536 10.1172 26.4536H16.8438C17.026 26.4536 17.181 26.5174 17.3086 26.645C17.4362 26.7726 17.5 26.9276 17.5 27.1099C17.5 27.2922 17.4362 27.4471 17.3086 27.5747C17.181 27.7023 17.026 27.7661 16.8438 27.7661H10.1172ZM26.9062 38.8677C26.9062 40.4718 27.2161 42.0031 27.8359 43.4614C28.4557 44.8833 29.2943 46.1229 30.3516 47.1802C31.4089 48.2375 32.6484 49.076 34.0703 49.6958C35.5286 50.3156 37.0599 50.6255 38.6641 50.6255C40.2682 50.6255 41.7995 50.3156 43.2578 49.6958C44.6797 49.076 45.9193 48.2375 46.9766 47.1802C48.0339 46.1229 48.8724 44.8833 49.4922 43.4614C50.112 42.0031 50.4219 40.4718 50.4219 38.8677C50.4219 37.2635 50.112 35.7323 49.4922 34.2739C48.8724 32.8521 48.0339 31.6125 46.9766 30.5552C45.9193 29.4979 44.6797 28.6593 43.2578 28.0396C41.7995 27.4198 40.2682 27.1099 38.6641 27.1099C37.0599 27.1099 35.5286 27.4198 34.0703 28.0396C32.6484 28.6593 31.4089 29.4979 30.3516 30.5552C29.2943 31.6125 28.4557 32.8521 27.8359 34.2739C27.2161 35.7323 26.9062 37.2635 26.9062 38.8677ZM10.1172 28.8052H16.8438C17.2812 28.8052 17.6641 28.6411 17.9922 28.313C18.3203 27.9849 18.4844 27.5838 18.4844 27.1099C18.4844 26.6359 18.3203 26.2349 17.9922 25.9067C17.6641 25.5786 17.2812 25.4146 16.8438 25.4146H10.1172C9.64323 25.4146 9.24219 25.5786 8.91406 25.9067C8.58594 26.2349 8.42188 26.6359 8.42188 27.1099C8.42188 27.5838 8.58594 27.9849 8.91406 28.313C9.24219 28.6411 9.64323 28.8052 10.1172 28.8052Z" fill="black"/>
</svg>
