<svg width="56" height="58" viewBox="0 0 56 58" fill="none" xmlns="http://www.w3.org/2000/svg">
<path d="M35.3281 34.1411C35.3281 34.2869 35.319 34.4328 35.3008 34.5786C35.2826 34.7244 35.2734 34.8521 35.2734 34.9614L44.0234 45.188C45.0443 44.1307 45.9375 43.0005 46.7031 41.7974C47.5052 40.5578 48.1797 39.2635 48.7266 37.9146C49.2734 36.5656 49.6927 35.1437 49.9844 33.6489C50.276 32.1906 50.4219 30.6776 50.4219 29.1099C50.4219 25.8651 49.8021 22.8208 48.5625 19.9771C47.3229 17.0968 45.6458 14.5994 43.5312 12.4849C41.4167 10.3703 38.9193 8.6932 36.0391 7.45361C33.1953 6.21403 30.151 5.59424 26.9062 5.59424C24.4271 5.59424 22.0573 5.95882 19.7969 6.68799C17.5365 7.41716 15.4583 8.43799 13.5625 9.75049L21.2188 18.6646C21.7656 18.2635 22.3854 17.9445 23.0781 17.7075C23.7708 17.4705 24.4818 17.3521 25.2109 17.3521V14.0161C25.2109 13.5422 25.375 13.1411 25.7031 12.813C26.0312 12.4849 26.4323 12.3208 26.9062 12.3208C27.3802 12.3208 27.7812 12.4849 28.1094 12.813C28.4375 13.1411 28.6016 13.5422 28.6016 14.0161V17.3521C30.4609 17.3521 32.0469 18.0083 33.3594 19.3208C34.6719 20.6333 35.3281 22.2192 35.3281 24.0786C35.3281 24.5526 35.1641 24.9536 34.8359 25.2817C34.5078 25.6099 34.1068 25.7739 33.6328 25.7739C33.1589 25.7739 32.7578 25.6099 32.4297 25.2817C32.1016 24.9536 31.9375 24.5526 31.9375 24.0786C31.9375 23.1307 31.6094 22.3286 30.9531 21.6724C30.2969 21.0161 29.513 20.688 28.6016 20.688H25.2109C24.8828 20.688 24.5638 20.7336 24.2539 20.8247C23.944 20.9159 23.6615 21.0526 23.4062 21.2349L29.2031 27.9614L31.5 28.5083C32.6302 28.8 33.5508 29.4015 34.2617 30.313C34.9727 31.2244 35.3281 32.2635 35.3281 33.4302V34.1411ZM33.9062 38.2427C33.3229 39.0448 32.5664 39.6828 31.6367 40.1567C30.707 40.6307 29.6953 40.8677 28.6016 40.8677V44.2036C28.6016 44.6776 28.4375 45.0786 28.1094 45.4067C27.7812 45.7349 27.3802 45.8989 26.9062 45.8989C26.4323 45.8989 26.0312 45.7349 25.7031 45.4067C25.375 45.0786 25.2109 44.6776 25.2109 44.2036V40.8677C23.3516 40.8677 21.7656 40.2114 20.4531 38.8989C19.1406 37.5864 18.4844 36.0005 18.4844 34.1411C18.4844 33.6672 18.6484 33.2661 18.9766 32.938C19.3047 32.6099 19.7057 32.4458 20.1797 32.4458C20.6536 32.4458 21.0547 32.6099 21.3828 32.938C21.7109 33.2661 21.875 33.6672 21.875 34.1411C21.875 35.089 22.2031 35.8911 22.8594 36.5474C23.5156 37.2036 24.2995 37.5317 25.2109 37.5317H28.6016C29.2578 37.5317 29.8503 37.3586 30.3789 37.0122C30.9076 36.6659 31.3177 36.201 31.6094 35.6177L27.3984 30.9692L22.3125 29.7114C21.1823 29.4198 20.2617 28.8182 19.5508 27.9067C18.8398 26.9953 18.4844 25.9562 18.4844 24.7896V24.0786C18.4844 23.6411 18.5299 23.2218 18.6211 22.8208C18.7122 22.4198 18.8307 22.0187 18.9766 21.6177L10.5 12.2661C9.40625 13.3234 8.42188 14.4901 7.54688 15.7661C6.67188 17.0422 5.92448 18.3911 5.30469 19.813C4.6849 21.2349 4.21094 22.7297 3.88281 24.2974C3.55469 25.8651 3.39062 27.4692 3.39062 29.1099C3.39062 32.3547 4.01042 35.3989 5.25 38.2427C6.48958 41.1229 8.16667 43.6203 10.2812 45.7349C12.3958 47.8494 14.8932 49.5265 17.7734 50.7661C20.6172 52.0057 23.6615 52.6255 26.9062 52.6255C29.7865 52.6255 32.5117 52.1424 35.082 51.1763C37.6523 50.2101 39.9583 48.8703 42 47.1567L33.9062 38.2427ZM21.875 24.8442L23.3516 26.4849L23.1328 26.4302C22.7682 26.3573 22.4674 26.175 22.2305 25.8833C21.9935 25.5916 21.875 25.2453 21.875 24.8442ZM26.9062 2.20361C30.625 2.20361 34.1068 2.91455 37.3516 4.33643C40.6328 5.7583 43.4857 7.68148 45.9102 10.106C48.3346 12.5304 50.2578 15.3833 51.6797 18.6646C53.1016 21.9093 53.8125 25.3911 53.8125 29.1099C53.8125 32.8286 53.1016 36.3104 51.6797 39.5552C50.2578 42.8364 48.3346 45.6893 45.9102 48.1138C43.4857 50.5382 40.6328 52.4614 37.3516 53.8833C34.1068 55.3052 30.625 56.0161 26.9062 56.0161C23.1875 56.0161 19.7057 55.3052 16.4609 53.8833C13.1797 52.4614 10.3268 50.5382 7.90234 48.1138C5.47786 45.6893 3.55469 42.8364 2.13281 39.5552C0.710938 36.3104 0 32.8286 0 29.1099C0 25.3911 0.710938 21.9093 2.13281 18.6646C3.55469 15.3833 5.47786 12.5304 7.90234 10.106C10.3268 7.68148 13.1797 5.7583 16.4609 4.33643C19.7057 2.91455 23.1875 2.20361 26.9062 2.20361ZM35.3281 34.1411C35.3281 34.2869 35.319 34.4328 35.3008 34.5786C35.2826 34.7244 35.2734 34.8521 35.2734 34.9614L44.0234 45.188C45.0443 44.1307 45.9375 43.0005 46.7031 41.7974C47.5052 40.5578 48.1797 39.2635 48.7266 37.9146C49.2734 36.5656 49.6927 35.1437 49.9844 33.6489C50.276 32.1906 50.4219 30.6776 50.4219 29.1099C50.4219 25.8651 49.8021 22.8208 48.5625 19.9771C47.3229 17.0968 45.6458 14.5994 43.5312 12.4849C41.4167 10.3703 38.9193 8.6932 36.0391 7.45361C33.1953 6.21403 30.151 5.59424 26.9062 5.59424C24.4271 5.59424 22.0573 5.95882 19.7969 6.68799C17.5365 7.41716 15.4583 8.43799 13.5625 9.75049L21.2188 18.6646C21.7656 18.2635 22.3854 17.9445 23.0781 17.7075C23.7708 17.4705 24.4818 17.3521 25.2109 17.3521V14.0161C25.2109 13.5422 25.375 13.1411 25.7031 12.813C26.0312 12.4849 26.4323 12.3208 26.9062 12.3208C27.3802 12.3208 27.7812 12.4849 28.1094 12.813C28.4375 13.1411 28.6016 13.5422 28.6016 14.0161V17.3521C30.4609 17.3521 32.0469 18.0083 33.3594 19.3208C34.6719 20.6333 35.3281 22.2192 35.3281 24.0786C35.3281 24.5526 35.1641 24.9536 34.8359 25.2817C34.5078 25.6099 34.1068 25.7739 33.6328 25.7739C33.1589 25.7739 32.7578 25.6099 32.4297 25.2817C32.1016 24.9536 31.9375 24.5526 31.9375 24.0786C31.9375 23.1307 31.6094 22.3286 30.9531 21.6724C30.2969 21.0161 29.513 20.688 28.6016 20.688H25.2109C24.8828 20.688 24.5638 20.7336 24.2539 20.8247C23.944 20.9159 23.6615 21.0526 23.4062 21.2349L29.2031 27.9614L31.5 28.5083C32.6302 28.8 33.5508 29.4015 34.2617 30.313C34.9727 31.2244 35.3281 32.2635 35.3281 33.4302V34.1411ZM33.9062 38.2427C33.3229 39.0448 32.5664 39.6828 31.6367 40.1567C30.707 40.6307 29.6953 40.8677 28.6016 40.8677V44.2036C28.6016 44.6776 28.4375 45.0786 28.1094 45.4067C27.7812 45.7349 27.3802 45.8989 26.9062 45.8989C26.4323 45.8989 26.0312 45.7349 25.7031 45.4067C25.375 45.0786 25.2109 44.6776 25.2109 44.2036V40.8677C23.3516 40.8677 21.7656 40.2114 20.4531 38.8989C19.1406 37.5864 18.4844 36.0005 18.4844 34.1411C18.4844 33.6672 18.6484 33.2661 18.9766 32.938C19.3047 32.6099 19.7057 32.4458 20.1797 32.4458C20.6536 32.4458 21.0547 32.6099 21.3828 32.938C21.7109 33.2661 21.875 33.6672 21.875 34.1411C21.875 35.089 22.2031 35.8911 22.8594 36.5474C23.5156 37.2036 24.2995 37.5317 25.2109 37.5317H28.6016C29.2578 37.5317 29.8503 37.3586 30.3789 37.0122C30.9076 36.6659 31.3177 36.201 31.6094 35.6177L27.3984 30.9692L22.3125 29.7114C21.1823 29.4198 20.2617 28.8182 19.5508 27.9067C18.8398 26.9953 18.4844 25.9562 18.4844 24.7896V24.0786C18.4844 23.6411 18.5299 23.2218 18.6211 22.8208C18.7122 22.4198 18.8307 22.0187 18.9766 21.6177L10.5 12.2661C9.40625 13.3234 8.42188 14.4901 7.54688 15.7661C6.67188 17.0422 5.92448 18.3911 5.30469 19.813C4.6849 21.2349 4.21094 22.7297 3.88281 24.2974C3.55469 25.8651 3.39062 27.4692 3.39062 29.1099C3.39062 32.3547 4.01042 35.3989 5.25 38.2427C6.48958 41.1229 8.16667 43.6203 10.2812 45.7349C12.3958 47.8494 14.8932 49.5265 17.7734 50.7661C20.6172 52.0057 23.6615 52.6255 26.9062 52.6255C29.7865 52.6255 32.5117 52.1424 35.082 51.1763C37.6523 50.2101 39.9583 48.8703 42 47.1567L33.9062 38.2427ZM21.875 24.8442L23.3516 26.4849L23.1328 26.4302C22.7682 26.3573 22.4674 26.175 22.2305 25.8833C21.9935 25.5916 21.875 25.2453 21.875 24.8442ZM26.9062 2.20361C30.625 2.20361 34.1068 2.91455 37.3516 4.33643C40.6328 5.7583 43.4857 7.68148 45.9102 10.106C48.3346 12.5304 50.2578 15.3833 51.6797 18.6646C53.1016 21.9093 53.8125 25.3911 53.8125 29.1099C53.8125 32.8286 53.1016 36.3104 51.6797 39.5552C50.2578 42.8364 48.3346 45.6893 45.9102 48.1138C43.4857 50.5382 40.6328 52.4614 37.3516 53.8833C34.1068 55.3052 30.625 56.0161 26.9062 56.0161C23.1875 56.0161 19.7057 55.3052 16.4609 53.8833C13.1797 52.4614 10.3268 50.5382 7.90234 48.1138C5.47786 45.6893 3.55469 42.8364 2.13281 39.5552C0.710938 36.3104 0 32.8286 0 29.1099C0 25.3911 0.710938 21.9093 2.13281 18.6646C3.55469 15.3833 5.47786 12.5304 7.90234 10.106C10.3268 7.68148 13.1797 5.7583 16.4609 4.33643C19.7057 2.91455 23.1875 2.20361 26.9062 2.20361Z" fill="black"/>
</svg>
