<svg width="17" height="16" viewBox="0 0 17 16" fill="none" xmlns="http://www.w3.org/2000/svg">
<path fill-rule="evenodd" clip-rule="evenodd" d="M3.94812 8.00006C3.94812 7.48043 4.03437 6.98218 4.1885 6.51493L1.49225 4.45605C0.966746 5.52293 0.670746 6.72518 0.670746 8.00006C0.670746 9.27393 0.966496 10.4753 1.49112 11.5416L4.18587 9.47868C4.03325 9.01356 3.94812 8.51718 3.94812 8.00006Z" fill="#FBBC05"/>
<path fill-rule="evenodd" clip-rule="evenodd" d="M8.68212 3.27275C9.811 3.27275 10.8306 3.67275 11.6317 4.32725L13.9622 2C12.5421 0.763625 10.7214 0 8.68212 0C5.51612 0 2.79512 1.8105 1.49225 4.456L4.18837 6.51487C4.80962 4.62912 6.5805 3.27275 8.68212 3.27275Z" fill="#EA4335"/>
<path fill-rule="evenodd" clip-rule="evenodd" d="M8.68212 12.7272C6.58062 12.7272 4.80975 11.3709 4.1885 9.48511L1.49225 11.5436C2.79512 14.1895 5.51612 16 8.68212 16C10.6361 16 12.5017 15.3061 13.9019 14.0061L11.3426 12.0276C10.6205 12.4825 9.71112 12.7272 8.68212 12.7272Z" fill="#34A853"/>
<path fill-rule="evenodd" clip-rule="evenodd" d="M16.3293 7.99991C16.3293 7.52716 16.2564 7.01804 16.1471 6.54541H8.68213V9.63629H12.9791C12.7643 10.6902 12.1795 11.5003 11.3426 12.0275L13.9019 14.006C15.3726 12.641 16.3293 10.6075 16.3293 7.99991Z" fill="#4285F4"/>
</svg>
