<svg width="35" height="35" viewBox="0 0 49 49" fill="none" xmlns="http://www.w3.org/2000/svg">
<rect x="1.7793" y="1.89001" width="46" height="46" rx="23" stroke="#EEEEEE" stroke-width="2"/>
<path d="M20.5258 31.89H17.2562V21.3783H20.5258V31.89ZM18.8734 19.972C17.8539 19.972 17.0102 19.0931 17.0102 18.0385C17.0102 17.0189 17.8539 16.1752 18.8734 16.1752C19.9281 16.1752 20.7719 17.0189 20.7719 18.0385C20.7719 19.0931 19.9281 19.972 18.8734 19.972ZM32.725 31.89H29.4906V26.7924C29.4906 25.5619 29.4555 24.015 27.768 24.015C26.0805 24.015 25.8344 25.3158 25.8344 26.6869V31.89H22.5648V21.3783H25.6937V22.8197H25.7289C26.1859 22.0111 27.2406 21.1322 28.8227 21.1322C32.1273 21.1322 32.7602 23.3119 32.7602 26.1244V31.89H32.725Z" fill="black"/>
</svg>
