<svg width="20" height="19" viewBox="0 0 20 19" fill="none" xmlns="http://www.w3.org/2000/svg">
<path fill-rule="evenodd" clip-rule="evenodd" d="M15.9237 1.13768C16.2026 0.85873 16.6549 0.85873 16.9338 1.13768L19.791 3.99482C20.0699 4.27377 20.0699 4.72603 19.791 5.00497C19.512 5.28392 19.0598 5.28392 18.7808 5.00497L16.4287 2.65291L8.53382 10.5478C8.25487 10.8268 7.80261 10.8268 7.52366 10.5478C7.24472 10.2689 7.24472 9.81662 7.52366 9.53768L15.9237 1.13768Z" fill="#5C5F6A"/>
<path fill-rule="evenodd" clip-rule="evenodd" d="M12.7092 4.35203C12.9882 4.07309 13.4404 4.07309 13.7194 4.35203L16.2194 6.85203C16.4983 7.13098 16.4983 7.58324 16.2194 7.86218C15.9404 8.14113 15.4882 8.14113 15.2092 7.86218L12.7092 5.36218C12.4303 5.08324 12.4303 4.63098 12.7092 4.35203Z" fill="#5C5F6A"/>
<path fill-rule="evenodd" clip-rule="evenodd" d="M0 13.0713C0 10.3099 2.23858 8.07129 5 8.07129C7.76142 8.07129 10 10.3099 10 13.0713C10 15.8328 7.76141 18.0713 5 18.0713C2.23859 18.0713 0 15.8328 0 13.0713ZM5 9.49986C3.02756 9.49986 1.42857 11.0988 1.42857 13.0713C1.42857 15.0438 3.02755 16.6427 5 16.6427C6.97245 16.6427 8.57143 15.0438 8.57143 13.0713C8.57143 11.0988 6.97244 9.49986 5 9.49986Z" fill="#5C5F6A"/>
</svg>
