<svg width="35" height="35" viewBox="0 0 49 49" fill="none" xmlns="http://www.w3.org/2000/svg">
<rect x="1.39062" y="1.89001" width="46" height="46" rx="23" stroke="#EEEEEE" stroke-width="2"/>
<path d="M33.2087 25.14C33.2087 29.9564 29.3063 33.8588 24.4899 33.8588C23.5759 33.8588 22.697 33.7533 21.8884 33.472C22.2399 32.9095 22.7673 31.9603 22.9782 31.1869C23.0837 30.8002 23.5055 29.1127 23.5055 29.1127C23.7868 29.6752 24.6305 30.1322 25.5095 30.1322C28.1462 30.1322 30.0446 27.7064 30.0446 24.7181C30.0446 21.8353 27.6891 19.6556 24.6657 19.6556C20.904 19.6556 18.9001 22.1869 18.9001 24.9291C18.9001 26.2299 19.568 27.8119 20.6579 28.3392C20.8337 28.4095 20.9391 28.3744 20.9743 28.1986C20.9743 28.0931 21.1501 27.4955 21.2204 27.2142C21.2204 27.1439 21.2204 27.0385 21.1501 26.9681C20.7985 26.5463 20.5173 25.7377 20.5173 24.9642C20.5173 23.0658 21.9587 21.2025 24.4548 21.2025C26.5641 21.2025 28.0759 22.6439 28.0759 24.7533C28.0759 27.1088 26.8805 28.726 25.3337 28.726C24.4899 28.726 23.8571 28.0228 24.0329 27.1791C24.279 26.1244 24.7712 24.9994 24.7712 24.2611C24.7712 23.5931 24.4196 23.0306 23.6813 23.0306C22.8024 23.0306 22.0993 23.9447 22.0993 25.14C22.0993 25.9135 22.3454 26.4408 22.3454 26.4408C22.3454 26.4408 21.5016 30.097 21.3259 30.765C21.1501 31.5385 21.2204 32.5931 21.2907 33.2611C18.0563 31.9955 15.7712 28.8666 15.7712 25.14C15.7712 20.3236 19.6735 16.4213 24.4899 16.4213C29.3063 16.4213 33.2087 20.3236 33.2087 25.14Z" fill="black"/>
</svg>
