<svg width="24" height="25" viewBox="0 0 24 25" fill="none" xmlns="http://www.w3.org/2000/svg">
<path d="M12.1396 15.2701V13.3099C12.1396 10.7899 14.1796 8.73999 16.7096 8.73999H18.6696" stroke="#4B5563" stroke-width="1.5" stroke-linecap="round" stroke-linejoin="round"/>
<path d="M5.62012 8.75H7.58014C10.1001 8.75 12.1501 10.79 12.1501 13.32V13.97V17.45" stroke="#4B5563" stroke-width="1.5" stroke-linecap="round" stroke-linejoin="round"/>
<path d="M7.13983 6.94995L5.33984 8.74995L7.13983 10.55" stroke="#4B5563" stroke-width="1.5" stroke-linecap="round" stroke-linejoin="round"/>
<path d="M16.8604 6.94995L18.6604 8.74995L16.8604 10.55" stroke="#4B5563" stroke-width="1.5" stroke-linecap="round" stroke-linejoin="round"/>
<path d="M9 22.2H15C20 22.2 22 20.2 22 15.2V9.19995C22 4.19995 20 2.19995 15 2.19995H9C4 2.19995 2 4.19995 2 9.19995V15.2C2 20.2 4 22.2 9 22.2Z" stroke="#4B5563" stroke-width="1.5" stroke-linecap="round" stroke-linejoin="round"/>
</svg>
