<svg width="35" height="35" viewBox="0 0 49 49" fill="none" xmlns="http://www.w3.org/2000/svg">
<rect x="1.16992" y="1.89001" width="46" height="46" rx="23" stroke="#EEEEEE" stroke-width="2"/>
<path d="M31.4066 21.4838C31.4066 21.6595 31.4066 21.8002 31.4066 21.976C31.4066 26.8627 27.7152 32.4525 20.9301 32.4525C18.8207 32.4525 16.8871 31.8549 15.2699 30.8002C15.5512 30.8353 15.8324 30.8705 16.1488 30.8705C17.8715 30.8705 19.4535 30.2728 20.7191 29.2885C19.102 29.2533 17.7309 28.1986 17.2738 26.722C17.5199 26.7572 17.7309 26.7924 17.977 26.7924C18.2934 26.7924 18.6449 26.722 18.9262 26.6517C17.2387 26.3002 15.973 24.8236 15.973 23.0306V22.9955C16.4652 23.2767 17.0629 23.4174 17.6605 23.4525C16.641 22.7845 16.0082 21.6595 16.0082 20.3939C16.0082 19.6908 16.184 19.058 16.5004 18.5306C18.3285 20.7455 21.0707 22.222 24.1293 22.3978C24.059 22.1166 24.0238 21.8353 24.0238 21.5541C24.0238 19.515 25.6762 17.8627 27.7152 17.8627C28.7699 17.8627 29.7191 18.2845 30.4223 19.0228C31.2309 18.847 32.0395 18.5306 32.7426 18.1088C32.4613 18.9877 31.8988 19.6908 31.1254 20.1478C31.8637 20.0775 32.602 19.8666 33.2348 19.5853C32.7426 20.3236 32.1098 20.9564 31.4066 21.4838Z" fill="black"/>
</svg>
